<svg width="325" height="46" viewBox="0 0 325 46" fill="none" xmlns="http://www.w3.org/2000/svg">
<path fill-rule="evenodd" clip-rule="evenodd" d="M0 1.0396H223.904C224.83 1.27727 225.393 1.35547 225.956 2.1896C227 1.35547 227.765 0.999733 228.448 0.999733C231.022 1.07793 232.388 6.0352 228.489 7.30327C228.489 8.4134 229.815 11.983 230.781 12.259C231.544 10.7931 232.068 9.28587 233.153 7.97793C234.079 5.4004 232.309 1.0396 235.727 0.999733C235.968 0.999733 236.209 1.0396 236.49 1.07793C239.224 1.99027 238.783 6.31273 236.249 7.34313C235.687 8.93013 236.531 10.5156 237.094 12.1409C237.134 12.8938 236.812 16.859 238.179 17.4141C239.345 14.8764 239.827 11.983 241.155 9.5634C244.894 6.4308 244.733 7.8982 244.653 3.14027C245.055 1.71273 246.181 1.0396 247.266 1.0396C248.352 1.0396 249.196 1.67287 249.518 3.06053C249.518 5.12287 249.639 6.4308 247.388 6.8678C246.663 7.42287 247.991 11.7453 248.633 12.5764C250.925 9.08807 250.162 2.86273 253.017 1.15767C253.379 1.07793 253.661 1.0396 253.981 1.0396C257.601 0.999733 257.239 6.63013 254.625 7.1852C253.217 8.57287 255.55 12.1409 256.113 13.5685C256.113 16.146 254.665 16.5416 257.399 18.7235C258.727 19.6343 261.582 20.6663 261.42 22.609C259.128 24.1147 258.243 19.872 255.629 19.872C255.629 24.8691 258.243 30.8553 260.456 35.2575C263.712 31.6097 266.526 28.0799 265.16 22.9264C265.16 21.1416 266.285 19.3967 266.004 17.6134C264.999 19.5561 264.396 21.2597 264.194 23.4416C263.511 25.8597 261.138 24.7495 262.507 22.7271C262.707 17.4938 263.35 10.9909 267.895 7.54093C268.618 6.47067 268.136 5.2808 267.934 4.09247C267.934 2.07 269.06 1.0396 270.307 1.0396C272.196 1.0396 274.328 3.22 272.317 6.3526C271.955 6.70833 271.432 7.0656 270.91 7.10547C270.669 7.30327 270.025 15.5112 271.914 15.9467C273.081 15.1156 274.206 14.2815 275.332 13.4887C275.695 13.4887 279.112 18.009 279.957 19.0394C279.232 19.9119 277.946 20.7445 277.061 21.459C276.901 22.8467 276.217 23.4416 274.931 23.1242C270.829 26.5343 273.684 24.3125 271.151 23.6793C271.151 26.8517 270.95 30.1821 270.87 33.4727C269.985 35.9306 269.462 39.6581 269.622 42.4335C270.709 43.3458 271.111 43.861 272.639 44.0588C273.001 44.2183 273.242 44.2581 273.202 44.8515C272.961 45.011 272.196 45.1689 271.232 45.1689C269.503 45.1689 267.17 45.0509 266.526 45.011C266.326 44.1784 266.447 43.2661 266.407 42.4733C265.119 42.4733 262.546 43.9009 261.26 44.4161C260.174 43.861 260.857 41.561 259.571 41.2436C259.047 41.7588 259.33 43.2262 259.691 43.9407C260.335 44.2581 260.576 44.1385 260.938 44.7733C260.817 45.0509 261.26 45.1689 260.254 45.1689C259.249 45.1689 255.188 41.2436 256.072 40.0936C256.797 39.6183 257.801 39.1031 258.204 38.3502C256.595 34.6625 254.223 31.2923 252.776 27.6046C250.885 32.4024 247.226 36.1284 245.859 40.9661C245.859 43.1066 249.115 40.6502 249.115 42.5531C248.552 42.9088 248.03 43.2262 247.508 43.5835V43.7813C248.03 44.2965 249.036 43.7031 248.874 44.8515C248.473 45.0509 247.508 45.1689 246.422 45.1689C244.612 45.1689 242.482 44.9313 242.2 44.7335C242.16 43.9791 242.16 43.3857 242.16 42.6313C241.155 43.2262 238.019 45.1689 236.169 45.1689C235.806 45.1689 235.486 45.011 235.243 44.8515C232.147 44.8515 228.77 45.1291 225.634 45.011C225.593 45.0907 225.593 45.1291 225.553 45.1689H0V1.0396ZM263.633 41.1639C264.356 41.2037 265.723 41.1255 266.488 40.9262C266.929 38.8255 266.97 35.2575 266.97 33.0755C265.079 34.9401 258.846 39.261 263.633 41.1639ZM217.966 9.84093C218.047 10.0403 218.691 8.81053 218.691 8.81053C219.855 7.5026 219.816 7.0656 219.816 5.36053C219.776 5.32067 219.736 5.2808 219.736 5.2808C219.535 5.63807 219.333 5.95547 219.173 6.31273C218.047 7.62067 216.921 7.46273 217.966 9.84093ZM234.051 30.222C234.373 30.498 235.659 24.7097 234.895 24.7097C234.654 25.0271 234.614 25.622 234.332 26.0575C230.874 27.4068 234.051 20.1894 231.155 20.1894C230.914 23.7989 232.603 27.0097 234.051 30.222ZM245.586 31.1405C245.829 31.418 248.321 21.5065 248.321 19.5239C246.954 18.2543 246.993 18.2145 246.311 16.8667H246.029C245.306 21.6645 245.386 26.2645 245.586 31.1405ZM229.064 36.6053C229.627 36.4075 231.155 34.5429 231.155 33.9097C230.19 32.1647 229.023 30.9749 228.501 29.1502H228.341C228.059 30.1024 227.496 31.2524 227.496 32.3625C227.979 33.7103 228.742 35.0581 229.064 36.6053ZM236.302 36.7233H236.422C236.744 35.8907 236.985 33.6705 236.784 32.9575H236.584C236.221 33.3531 235.859 33.7901 235.498 34.2255C235.659 34.9799 235.859 35.9306 236.302 36.7233ZM219.736 37.5559C219.736 37.5559 219.776 37.5559 219.816 37.5958C221.424 36.5255 220.379 34.8205 219.254 33.7103C218.61 34.385 219.495 36.5255 219.736 37.5559ZM221.465 41.7205C221.947 41.8385 221.746 40.8879 221.665 40.7683H221.384C221.264 41.0857 220.902 41.4813 221.465 41.7205ZM231.396 41.7987C232.642 41.8385 233.849 41.6806 235.055 41.7588C235.096 41.6806 235.136 41.6009 235.177 41.561C234.573 40.1335 233.729 38.7857 233.045 37.5176C232.522 37.398 228.019 40.848 231.396 41.7987ZM227.375 43.7031C227.697 43.7031 227.697 43.7031 227.818 43.6632C227.818 41.7205 225.002 40.411 226.812 38.9053C226.974 38.1509 225.727 35.9306 225.365 35.7727C223.595 37.0009 223.836 39.4603 224.441 41.4813C224.761 41.7205 227.335 42.2357 225.767 43.148V43.3458C226.128 43.5835 226.853 43.6632 227.375 43.7031ZM217.806 42.6313H217.966C217.806 41.4813 217.484 41.7205 218.047 40.6885C217.846 39.6581 217.403 38.7059 217.081 37.835H216.881C215.795 40.2531 215.674 40.9262 217.806 42.6313Z" fill="#131016"/>
<path fill-rule="evenodd" clip-rule="evenodd" d="M208.468 41.1731C208.817 42.1145 209.734 42.7509 210.735 42.7509C212.068 42.7509 213.156 41.6576 213.156 40.3175C213.156 38.9773 212.068 37.8841 210.735 37.8841C209.403 37.8841 208.316 38.9773 208.316 40.3175C208.316 40.6027 208.373 40.9063 208.468 41.1731Z" fill="#FEFEFE"/>
<path fill-rule="evenodd" clip-rule="evenodd" d="M208.733 41.0673C209.044 41.906 209.861 42.4733 210.756 42.4733C211.944 42.4733 212.912 41.4981 212.912 40.3037C212.912 39.1092 211.944 38.1355 210.756 38.1355C209.568 38.1355 208.597 39.1092 208.597 40.3037C208.597 40.5582 208.649 40.8296 208.733 41.0673Z" fill="#131016"/>
<path fill-rule="evenodd" clip-rule="evenodd" d="M302.487 45.9631C301.679 45.6307 298.062 42.3101 299.38 41.3548C301.253 38.1578 302.912 35.2916 304.318 32.0128C305.168 28.3165 305.381 24.2894 305.679 20.5529C305.636 20.5112 305.595 20.4694 305.595 20.4277C304.658 22.0478 304.573 24.1642 304.318 25.9497C302.785 27.1122 301.594 26.6144 301.892 24.7872C303.977 18.9745 304.956 12.913 308.317 7.51467C309.041 5.89612 309.169 4.98248 308.955 3.27884C308.955 0.912037 309.594 0 311.255 0C312.913 0 315.382 2.73932 312.787 6.10326C310.275 7.93054 311.977 9.09307 312.658 11.9576C312.871 17.356 313.297 17.9373 318.234 20.9672C319.51 22.2132 319.383 23.5829 317.212 23.4592C316.445 22.1715 314.446 20.1788 312.956 20.1788C312.956 24.6218 314.956 28.6071 316.702 32.8012C317.298 35.1263 318.957 41.8108 321.468 42.4338C322.107 42.4338 325 41.9778 325 43.2222C323.723 43.7216 319.128 45.9631 318.277 44.3446C317.936 42.559 316.445 40.8152 315.637 39.3203C314.191 35.9146 311.807 32.9248 310.147 29.7279H309.892C308.402 34.3379 305.211 37.7419 302.616 41.936C302.061 43.9287 303.722 43.8869 304.36 45.4653C303.934 46.1702 303.253 45.9631 302.487 45.9631Z" fill="#131016"/>
<path fill-rule="evenodd" clip-rule="evenodd" d="M287.463 45.952C287.084 45.9103 286.705 45.8687 286.369 45.8687C285.823 45.2469 286.286 44.3768 286.496 43.7968C286.874 41.4765 286.538 38.9078 286.496 36.6292C285.192 36.6292 283.008 38.6595 282.209 39.5712C282.209 40.8131 282.461 42.1815 282.545 43.5484C281.58 44.5018 279.016 39.3629 279.31 38.7829C281.621 37.4577 288.176 31.9887 287.251 29.1701C285.571 25.6063 283.848 22.291 285.361 18.3971C285.404 17.6088 285.488 16.9053 285.571 16.1586C285.444 16.1586 285.361 16.1586 285.277 16.2003C284.731 17.527 283.051 24.0328 281.201 22.6227C281.201 22.0843 281.79 21.4225 282.126 20.9241C282.797 16.5736 284.604 12.8448 285.488 8.6177C286.411 6.79417 287.126 5.17895 287.336 3.23204C287.757 1.2018 288.975 0 290.067 0C291.077 0 291.959 0.910163 292.211 3.02373C292.084 4.43224 292.042 5.42733 290.529 5.80068C288.639 7.29252 291.959 10.1929 291.959 12.2231C291.58 12.9682 291.244 13.7149 290.908 14.4184C290.908 16.2003 295.194 19.1423 295.194 20.9658C293.766 23.0794 293.472 20.5924 292.884 19.5573C292.126 18.6872 291.244 17.7337 290.235 17.4854C289.9 17.8587 291.832 28.6317 291.874 30.2052C291.748 32.2771 291.748 32.3188 290.319 33.6456C289.185 35.3024 287.882 41.8915 289.521 43.9618C289.9 44.1285 291.959 44.9569 292.169 45.7453C291.623 46.0353 287.505 46.0353 287.463 45.952Z" fill="#131016"/>
<path fill-rule="evenodd" clip-rule="evenodd" d="M87.2592 40.7284C84.8054 39.8559 88.1828 38.5879 89.0676 38.0727C90.0333 37.2799 90.918 36.248 91.0378 34.9799L92.9286 10.2381C92.8073 9.28587 92.6861 8.7308 92.1232 8.05767C91.4001 7.46273 86.6558 6.4308 89.2682 4.9634H114.922C116.933 5.16273 115.967 8.4134 115.767 9.80107C115.647 10.9511 115.566 12.1409 115.485 13.2909C113.234 15.2337 113.636 11.1489 113.274 10.1185C111.385 6.98587 104.146 7.22507 101.332 8.33367L100.487 19.9119C102.257 20.6264 107.042 20.309 108.771 17.8894C109.173 16.859 109.575 15.4713 110.942 16.1859C111.144 17.1365 111.304 29.2698 108.852 27.6445C108.408 26.6524 108.208 25.5821 107.805 24.7495C106.238 22.8068 100.969 21.8147 99.643 24.1147L98.6774 35.3755C99.2403 40.411 108.328 37.0407 111.063 35.3357C112.308 34.3053 114.681 31.3321 115.767 31.1727C117.617 32.3625 114.159 38.0328 112.792 39.2211C112.389 39.5385 110.057 40.6885 110.057 40.7284C102.579 40.7284 94.6966 40.8879 87.2592 40.7284Z" fill="#FEFEFE"/>
<path fill-rule="evenodd" clip-rule="evenodd" d="M167.33 40.8879C160.575 40.848 153.78 40.8081 147.023 40.8081C144.571 39.9755 148.311 38.5081 148.914 38.1509C149.718 37.5176 150.04 37.1603 150.401 36.2081L152.693 10.2381C152.211 6.98587 150.723 8.0178 148.592 6.67C148.109 5.83587 148.43 5.44027 149.155 5.04313H175.129C176.779 5.79753 175.411 13.5685 174.607 13.846C172.918 13.846 173.441 12.6163 173.361 11.2286C172.718 8.29533 170.507 8.2156 167.933 8.0178C166.686 7.97793 161.499 7.34313 160.775 9.0482C160.494 12.6561 160.213 16.2641 159.931 19.872C161.982 21.3394 166.807 20.0713 168.455 18.2068C168.777 17.4141 170.225 14.4808 170.908 16.859C170.788 20.1112 170.385 23.5198 170.104 26.8517C169.018 30.1024 167.731 25.1068 167.208 24.3923C165.56 23.0843 160.213 21.9742 159.448 24.2343C159.087 27.8024 158.242 32.2046 158.483 35.8907C159.328 39.7363 166.807 37.5176 169.421 36.3661C171.752 34.8603 173.24 33.2749 175.089 31.2524C178.065 31.2524 173.522 42.4335 167.33 40.8879Z" fill="#FEFEFE"/>
<path fill-rule="evenodd" clip-rule="evenodd" d="M193.613 41.2037C184.927 40.0936 179.499 34.9002 179.017 26.1771C179.017 13.5685 186.657 5.12287 199.364 4.6874C203.023 4.9634 205.878 5.75767 209.255 7.10547C210.421 7.383 210.421 7.383 210.421 7.34313C211.225 7.34313 212.07 4.8852 213.276 6.0352C213.356 9.44533 213.436 12.8938 213.558 16.3039C213.034 17.5337 212.432 17.0967 211.829 16.3438C210.3 12.7359 207.686 9.3656 204.189 7.74027C188.627 3.14027 183.36 23.9967 191.121 33.8299C192.569 35.1777 193.613 35.9705 195.584 36.7632C202.178 38.0328 206.279 34.9799 211.063 30.8553C212.432 30.1024 212.713 30.9749 212.15 32.2046C207.646 38.6277 201.334 41.4031 193.613 41.2037Z" fill="#FEFEFE"/>
<path fill-rule="evenodd" clip-rule="evenodd" d="M130.792 41.2037C128.541 40.8879 121.946 39.7777 121.424 38.4284C121.021 35.7328 120.257 32.4806 120.257 29.8249C120.66 28.9524 121.142 28.9524 122.067 29.4277C123.716 33.5125 125.565 37.2002 130.189 38.5879C132.602 38.9053 134.611 38.7857 136.784 37.6357C146.072 29.3495 130.43 26.4147 125.767 23.5198C119.654 18.4445 121.503 6.90767 128.863 5.2808C129.786 4.80547 130.711 4.8852 131.637 4.6874C133.044 4.37 141.125 6.4308 142.453 6.59027C145.549 5.16273 144.905 6.82793 144.826 9.80107C144.826 11.3083 145.227 14.1634 144.826 15.6293C142.935 17.9691 141.971 12.9337 141.649 12.1409C138.754 7.74027 132.763 4.80547 128.5 9.00833C124.641 15.8685 132.641 17.3343 137.869 19.4365C143.66 22.0141 145.389 24.9872 144.543 31.3321C143.056 37.9132 137.266 41.4031 130.792 41.2037Z" fill="#FEFEFE"/>
<path fill-rule="evenodd" clip-rule="evenodd" d="M51.2039 40.8081C49.1529 39.9755 53.6965 38.2306 53.978 38.0328C55.7071 35.8509 54.1786 29.5075 51.123 28.8727C47.6259 28.7546 44.1676 28.6749 40.7093 28.9524C38.4577 30.1024 35.4815 35.7727 37.5729 37.7154C38.3364 38.0328 43.1227 39.261 41.4324 40.6885C31.0591 40.6885 27.8419 41.2835 28.9273 39.4603C30.857 38.2306 31.7013 37.4777 33.1102 35.7328C39.3829 25.9793 44.6092 15.4315 50.6006 5.55987C50.9224 5.16273 51.0437 4.8852 51.6455 4.8852C51.8865 5.12287 52.0887 5.44027 52.3297 5.87573C55.9886 15.9865 59.6879 26.0973 63.3467 36.2081C64.2719 38.1509 64.8348 38.6661 67.046 38.7857C68.856 38.2306 69.1375 36.6451 69.4189 34.9799C70.1015 27.0495 71.0672 19.1191 71.5897 11.2685C71.5897 7.5026 70.8262 7.62067 67.6089 6.67C66.805 6.31273 67.0864 5.12287 67.8111 4.9634H83.1711C85.6233 5.9156 80.9584 7.5808 80.0736 8.61273C79.9135 8.93013 79.7533 9.28587 79.5916 9.64313C78.8281 18.2068 78.0646 26.7321 77.2995 35.3357C77.2995 39.6183 80.6365 37.5176 81.6022 39.1828C81.7623 40.5306 80.0736 40.9262 77.9433 40.9262L51.2039 40.8081Z" fill="#FEFEFE"/>
<path fill-rule="evenodd" clip-rule="evenodd" d="M43.9655 26.0191C43.3233 25.9793 42.4385 25.9793 41.9549 25.7799C41.9549 24.6299 47.1019 16.0663 47.1827 15.9865C48.4687 14.7185 51.5662 24.7495 51.7264 25.622C51.4853 26.2967 45.0524 26.0191 43.9655 26.0191Z" fill="#131016"/>
<path fill-rule="evenodd" clip-rule="evenodd" d="M211.381 41.7373C211.197 41.7864 211.012 41.8201 210.794 41.8201C210.325 41.8201 209.972 41.6867 209.722 41.423C209.453 41.1577 209.334 40.8281 209.334 40.3803C209.334 40.0829 209.386 39.8191 209.502 39.5876C209.62 39.3561 209.788 39.1736 210.023 39.0417C210.241 38.9083 210.51 38.8593 210.829 38.8593C211.012 38.8593 211.197 38.8761 211.348 38.9421C211.633 39.0417 211.818 39.2395 211.902 39.5217C211.919 39.6029 211.85 39.6704 211.801 39.7363C211.615 39.9341 211.516 39.7363 211.381 39.6029C211.129 39.3392 211.147 39.4051 210.745 39.3561C210.525 39.3392 210.241 39.5048 210.107 39.6704C209.972 39.836 209.905 40.0675 209.905 40.365C209.905 40.5137 209.922 40.6287 209.956 40.7453C209.989 40.8603 210.039 40.9431 210.107 41.0259C210.174 41.1087 210.409 41.2405 210.493 41.2911C210.592 41.3233 210.745 41.3402 210.861 41.3402C211.012 41.3402 211.18 41.2743 211.281 41.2083C211.533 41.0596 211.499 41.009 211.65 40.894C211.699 40.8434 211.734 40.8112 211.801 40.8112C211.902 40.8112 211.951 40.8281 212.001 40.9109C212.169 41.2083 211.734 41.6208 211.381 41.7373Z" fill="#FEFEFE"/>
</svg>
