<svg width="160" height="93" viewBox="0 0 160 93" fill="none" xmlns="http://www.w3.org/2000/svg">
<g clip-path="url(#clip0_7008_3524)">
<path d="M127.063 85.5294C124.38 85.5294 123.358 83.8479 123.358 81.8434C123.358 79.994 124.38 78.0909 127.088 78.0909C129.3 78.0909 130.919 79.5222 130.919 81.4507V81.8719C130.919 84.0664 129.223 85.5294 127.063 85.5294V85.5294ZM24.138 72.2832C24.138 72.1564 24.0678 72.0837 23.9163 72.0837H22.9485C22.795 72.0837 22.7223 72.1564 22.7223 72.2832V81.1024C22.7223 84.839 24.4355 86.7169 27.7663 86.7169C29.7585 86.7169 30.7525 85.998 31.8227 84.8834C31.8431 84.8612 31.8681 84.839 31.9247 84.839C31.9948 84.839 32.0189 84.8834 32.0189 84.9562V86.3432C32.0189 86.4667 32.0967 86.5395 32.2471 86.5395H33.1613C33.311 86.5395 33.3868 86.4667 33.3868 86.3432V72.2832C33.3868 72.1564 33.311 72.0837 33.1613 72.0837H32.1936C32.0439 72.0837 31.97 72.1564 31.97 72.2832V81.5235C31.97 83.6737 30.453 85.5072 27.8925 85.5072C25.1848 85.5072 24.138 83.8985 24.138 81.077V72.2832ZM20.5607 72.0076C20.6831 72.0076 20.764 72.0837 20.764 72.2325V73.1477C20.764 73.2933 20.6831 73.3725 20.5607 73.3725H20.2624C17.6261 73.3725 16.0818 75.2187 16.0818 77.4955V86.3432C16.0818 86.4667 16.013 86.5395 15.8639 86.5395H14.8942C14.7432 86.5395 14.6674 86.4667 14.6674 86.3432V72.2832C14.6674 72.1564 14.7432 72.0837 14.8942 72.0837H15.8098C15.9582 72.0837 16.034 72.1564 16.034 72.2832V73.9837C16.034 74.0628 16.0602 74.1072 16.1328 74.1072C16.1837 74.1072 16.208 74.085 16.2334 74.0628C17.379 72.7043 18.4462 72.0076 20.4351 72.0076H20.5607ZM145.78 68.2552C145.78 68.1286 145.707 68.0556 145.557 68.0556H144.588C144.435 68.0556 144.366 68.1286 144.366 68.2552V70.0317C144.366 70.152 144.435 70.228 144.588 70.228H145.557C145.707 70.228 145.78 70.152 145.78 70.0317V68.2552ZM145.78 72.2832C145.78 72.1564 145.707 72.0837 145.557 72.0837H144.588C144.435 72.0837 144.366 72.1564 144.366 72.2832V86.2957C144.366 86.4129 144.465 86.4921 144.615 86.4921H145.557C145.707 86.4921 145.78 86.4129 145.78 86.2957V72.2832ZM150.53 77.5177C150.53 74.7279 151.773 73.1192 154.557 73.1192C157.265 73.1192 158.587 74.7279 158.587 77.5177V81.1024C158.587 83.8985 157.345 85.5072 154.557 85.5072C151.849 85.5072 150.53 83.8985 150.53 81.1024V77.5177ZM149.113 81.1309C149.113 84.7124 150.903 86.7169 154.557 86.7169C157.991 86.7169 160.004 84.7852 160.004 81.1309V77.4955C160.004 73.8412 158.065 71.9095 154.557 71.9095C151.2 71.9095 149.113 73.8412 149.113 77.4955V81.1309ZM141.927 72.0076C142.05 72.0076 142.131 72.0837 142.131 72.2325V73.1477C142.131 73.2933 142.05 73.3725 141.927 73.3725H141.634C138.996 73.3725 137.454 75.2187 137.454 77.4955V86.3432C137.454 86.4667 137.378 86.5395 137.229 86.5395H136.259C136.111 86.5395 136.036 86.4667 136.036 86.3432V72.2832C136.036 72.1564 136.111 72.0837 136.259 72.0837H137.18C137.331 72.0837 137.408 72.1564 137.408 72.2832V73.9837C137.408 74.0628 137.427 74.1072 137.502 74.1072C137.552 74.1072 137.578 74.085 137.602 74.0628C138.744 72.7043 139.818 72.0076 141.807 72.0076H141.927ZM112.122 77.771C112.122 74.9748 113.29 73.097 116.151 73.097C117.817 73.097 118.688 73.6163 119.453 75.0287C119.481 75.0731 119.58 75.1997 119.752 75.0984L120.526 74.7024C120.676 74.6266 120.624 74.4555 120.596 74.408C119.828 72.7265 118.386 71.9095 116.098 71.9095C112.744 71.9095 110.705 74.085 110.705 77.7489V80.8807C110.705 84.7852 112.721 86.7169 116.151 86.7169C118.511 86.7169 119.876 85.7479 120.624 84.3672C120.647 84.3197 120.695 84.1677 120.55 84.0949L119.799 83.6737C119.655 83.5755 119.553 83.6452 119.505 83.7497C118.908 84.8612 117.866 85.5294 116.197 85.5294C113.339 85.5294 112.122 83.6452 112.122 80.8554V77.771ZM107.496 68.2552C107.496 68.1286 107.422 68.0556 107.271 68.0556H106.303C106.156 68.0556 106.083 68.1286 106.083 68.2552V70.0317C106.083 70.152 106.156 70.228 106.303 70.228H107.271C107.422 70.228 107.496 70.152 107.496 70.0317V68.2552ZM107.496 72.2832C107.496 72.1564 107.422 72.0837 107.271 72.0837H106.303C106.156 72.0837 106.083 72.1564 106.083 72.2832V86.2957C106.083 86.4129 106.181 86.4921 106.33 86.4921H107.271C107.422 86.4921 107.496 86.4129 107.496 86.2957V72.2832ZM98.074 71.8588C98.074 72.0331 98.0237 72.0837 97.8753 72.0837H96.1372C95.9874 72.0837 95.9098 72.1344 95.9098 72.3053V73.0748C95.9098 73.2458 95.9874 73.2933 96.1372 73.2933H97.8497C98.0046 73.2933 98.0505 73.3408 98.0505 73.515V82.711C98.0505 84.8834 98.7207 86.6631 101.556 86.6631C102.601 86.6631 103.095 86.5395 104.019 86.2197C104.093 86.1944 104.238 86.1215 104.19 85.9252L103.965 85.1589C103.917 84.9562 103.716 85.0101 103.67 85.0322C102.952 85.2824 102.403 85.428 101.681 85.428C100.064 85.428 99.4667 84.5635 99.4667 82.4387V73.515C99.4667 73.3408 99.5177 73.2933 99.6655 73.2933H103.372C103.518 73.2933 103.595 73.2458 103.595 73.0748V72.3053C103.595 72.1344 103.518 72.0837 103.372 72.0837H99.6655C99.5177 72.0837 99.4667 72.0331 99.4667 71.8588V68.2299C99.4667 68.0556 99.3673 68.0081 99.1928 68.0556L98.3232 68.2994C98.1505 68.3502 98.074 68.404 98.074 68.5749V71.8588ZM9.30109 76.9984C9.30109 79.2277 7.70642 81.0042 5.24593 81.0042C2.98293 81.0042 1.36659 79.101 1.36659 76.9984C1.36659 74.7754 2.88099 73.0748 5.34659 73.0748C7.60894 73.0748 9.30109 74.7279 9.30109 76.9984V76.9984ZM9.72477 92.8951C9.86685 93.0882 10.0178 92.9679 10.0943 92.9172C11.7864 91.8786 12.4299 90.5201 12.4299 89.2312C12.4299 86.0709 9.54639 85.181 6.19267 85.2824C5.0962 85.3046 3.50472 85.4755 2.53695 85.6275C1.71572 85.7479 1.59149 85.7004 1.56473 85.2539C1.46662 83.6959 2.81028 82.0935 4.64832 82.0935H5.19814C8.67419 82.0935 10.6658 79.7217 10.6658 76.954C10.6658 76.1402 10.3166 75.0731 9.89488 74.3605C9.86685 74.3099 9.84391 74.2561 9.84391 74.2117C9.84391 74.1356 9.86685 74.0628 9.99235 73.9584C10.295 73.7146 11.1117 73.3408 11.9604 73.3408H12.0827C12.2076 73.3408 12.2815 73.268 12.2815 73.1192V72.2325C12.2815 72.0837 12.2076 72.0076 12.0827 72.0076H11.9604C10.7136 72.0076 9.84392 72.6505 9.34697 73.0748C9.22146 73.1698 9.15138 73.2236 9.07428 73.2236C9.02395 73.2236 8.95069 73.2236 8.87488 73.1477C7.85488 72.2325 6.38762 71.9095 5.34659 71.9095C2.112 71.9095 0 74.2117 0 76.9762C0 78.8857 1.11939 80.583 2.58729 81.4507C2.68221 81.5235 2.65928 81.647 2.56179 81.6977C0.849261 82.6129 -0.0254842 84.4147 0.424949 86.3179C0.546636 86.9164 0.920617 86.9829 2.03874 86.8341C2.95998 86.7169 4.1259 86.5142 6.28759 86.4667C9.72477 86.3907 11.0372 87.4072 11.0372 89.3326C11.0372 90.1971 10.69 91.0901 9.34697 91.9514C9.30109 92.0021 9.12334 92.0781 9.30109 92.3219L9.72477 92.8951ZM84.8763 77.5177C84.8763 74.7279 86.1129 73.1192 88.8997 73.1192C91.6125 73.1192 92.9282 74.7279 92.9282 77.5177V81.1024C92.9282 83.8985 91.6846 85.5072 88.8997 85.5072C86.1951 85.5072 84.8763 83.8985 84.8763 81.1024V77.5177ZM83.4557 81.1309C83.4557 84.7124 85.2466 86.7169 88.8997 86.7169C92.3324 86.7169 94.3476 84.7852 94.3476 81.1309V77.4955C94.3476 73.8412 92.4069 71.9095 88.8997 71.9095C85.546 71.9095 83.4557 73.8412 83.4557 77.4955V81.1309ZM38.3326 77.1028C38.3326 74.9495 39.9007 73.1192 42.537 73.1192C45.2683 73.1192 46.4387 74.7279 46.4387 77.5177V81.1024C46.4387 83.8985 45.1688 85.5072 42.4605 85.5072C39.9764 85.5072 38.3326 83.528 38.3326 81.3525V77.1028ZM69.5119 86.3432C69.5119 86.4667 69.584 86.5395 69.7355 86.5395H70.6549C70.8016 86.5395 70.8779 86.4667 70.8779 86.3432V85.0607C70.8779 84.9879 70.9002 84.934 70.9792 84.934C71.0263 84.934 71.0493 84.9562 71.0793 84.9879C71.9476 85.9474 73.2893 86.7169 75.0299 86.7169C78.3385 86.7169 80.3714 84.7852 80.3714 81.1309V77.4955C80.3714 73.8412 78.5354 71.9095 75.2039 71.9095C73.2123 71.9095 72.1706 72.5238 71.1015 73.6385C71.0793 73.6607 71.0493 73.6891 71.0002 73.6891C70.927 73.6891 70.9002 73.6385 70.9002 73.5688V66.0289C70.9002 65.9023 70.8301 65.8295 70.6779 65.8295H69.7355C69.584 65.8295 69.5119 65.9023 69.5119 66.0289V86.3432ZM75.077 73.1192C77.7657 73.1192 78.957 74.7279 78.957 77.5177V81.1024C78.957 83.8985 77.6912 85.5072 74.9777 85.5072C72.4192 85.5072 70.8518 83.452 70.8518 81.3525V77.1028C70.8518 74.9495 72.3962 73.1192 75.077 73.1192V73.1192ZM38.2842 72.2832C38.2842 72.1564 38.2097 72.0837 38.0619 72.0837H37.2133C37.0675 72.0837 36.9934 72.1564 36.9934 72.2832V92.3219C36.9934 92.4486 37.0675 92.5182 37.2133 92.5182H38.1377C38.2842 92.5182 38.36 92.4486 38.36 92.3219V85.0607C38.36 84.9879 38.3861 84.934 38.4589 84.934C38.5085 84.934 38.5365 84.9562 38.5558 84.9879C39.4265 85.9474 40.771 86.7169 42.5083 86.7169C45.82 86.7169 47.8581 84.7852 47.8581 81.1309V77.4955C47.8581 73.8412 46.018 71.9095 42.6637 71.9095C40.5976 71.9095 39.5495 72.6315 38.485 73.7429C38.4589 73.7621 38.4346 73.7904 38.3861 73.7904C38.3123 73.7904 38.2842 73.7429 38.2842 73.6607V72.2832ZM52.3567 77.5177C52.3567 74.7279 53.5997 73.1192 56.3818 73.1192C59.0928 73.1192 60.4097 74.7279 60.4097 77.5177V81.1024C60.4097 83.8985 59.1692 85.5072 56.3818 85.5072C53.6729 85.5072 52.3567 83.8985 52.3567 81.1024V77.5177ZM50.939 81.1309C50.939 84.7124 52.73 86.7169 56.3818 86.7169C59.8133 86.7169 61.8272 84.7852 61.8272 81.1309V77.4955C61.8272 73.8412 59.8891 71.9095 56.3818 71.9095C53.0262 71.9095 50.939 73.8412 50.939 77.4955V81.1309ZM132.333 76.954C132.333 74.0375 131.34 72.1344 127.662 71.9095C129.895 70.7979 132.384 69.1134 133.6 67.9037C133.749 67.7579 133.728 67.6376 133.647 67.5616L133.131 67.0423C133.004 66.9189 132.854 66.9917 132.803 67.0423C130.594 69.1419 127.261 71.3205 123.237 72.7455C123.109 72.7993 123.084 72.9259 123.135 73.0464L123.433 73.7146C123.482 73.8159 123.581 73.8634 123.681 73.8159C125.769 72.9481 127.213 73.0464 127.287 73.0464C130.32 73.0464 130.937 74.9495 130.937 76.6785V78.2808C130.937 78.4328 130.891 78.4835 130.816 78.4835C130.768 78.4835 130.716 78.4582 130.666 78.4107C129.697 77.4955 128.703 76.954 127.063 76.954C123.708 76.954 122.042 79.253 122.042 81.894C122.042 84.6902 123.73 86.6631 126.865 86.6631C128.751 86.6631 129.828 85.8967 130.793 84.8612C130.816 84.839 130.841 84.8105 130.891 84.8105C130.968 84.8105 130.991 84.8612 130.991 84.934V86.3432C130.991 86.4667 131.067 86.5395 131.212 86.5395H132.112C132.26 86.5395 132.333 86.4667 132.333 86.3432V76.954" fill="#231F20"/>
<path d="M77.3934 31.8346C79.757 28.9573 82.8857 28.0663 85.8419 28.6394C87.0704 27.6324 88.526 26.4809 90.3081 25.0832C90.431 24.9881 90.549 24.8914 90.6719 24.795C90.6617 24.7918 90.6617 24.7918 90.6592 24.7918C84.7947 22.0843 78.6421 23.5474 75.1195 27.2916C74.9634 27.4677 74.8029 27.642 74.6512 27.8255C74.4774 28.0314 74.2906 28.25 74.0977 28.4526C74.3079 28.6965 75.6088 30.169 77.3399 31.9023C77.3557 31.8801 77.3774 31.8548 77.3934 31.8346" fill="url(#paint0_linear_7008_3524)"/>
<path d="M74.1168 28.4402C74.0901 28.4688 74.1335 28.4213 74.1131 28.4498C69.5794 22.8239 64.624 13.6627 72.0086 5.68133C66.4709 10.3028 61.843 18.0029 60.3732 24.9253C57.0406 40.5952 65.2043 49.6196 72.4394 54.0371C65.1361 47.9889 67.2603 36.7097 74.1168 28.4402" fill="url(#paint1_linear_7008_3524)"/>
<path d="M74.1102 28.45L74.0432 28.5273C74.0662 28.4975 74.0872 28.469 74.114 28.4404C81.4407 19.8284 94.3957 9.92945 90.4136 4.26612C87.864 0.64972 82.1924 0.472342 78.8465 1.52686C78.7228 1.57761 78.5928 1.6295 78.4679 1.68657C76.0832 2.73347 73.9088 4.03815 72.0058 5.68154C64.6211 13.6629 69.5766 22.8241 74.1102 28.45" fill="#CCE310"/>
<path d="M90.6734 24.7952C90.5504 24.8915 90.4325 24.9883 90.3095 25.0833C88.5275 26.4811 87.0719 27.6326 85.8434 28.6396C101.928 31.7175 99.9497 55.9021 82.2298 56.7286C79.912 56.8426 77.5738 56.3582 76.125 55.8674C76.3308 55.9465 76.6335 56.0542 76.8144 56.1176C87.5031 59.6642 97.2515 54.303 99.6916 45.2304C101.978 36.7241 98.7098 28.513 90.6734 24.7952" fill="url(#paint2_linear_7008_3524)"/>
<path d="M78.8456 1.52664C82.1916 0.472124 87.8632 0.649501 90.4128 4.2659C94.2208 9.67274 82.5522 18.956 75.1172 27.292C78.6398 23.5478 84.7924 22.0847 90.6569 24.7922C90.6594 24.7922 90.6594 24.7922 90.6696 24.7955C111.935 7.91521 93.2257 -4.46145 78.8456 1.52664" fill="url(#paint3_linear_7008_3524)"/>
<path d="M74.1481 41.566C74.1398 41.5532 74.131 41.5406 74.1284 41.5342C71.2691 36.4941 71.7724 31.8188 74.1424 28.4748C74.1577 28.494 74.1806 28.5193 74.2073 28.5489C74.1571 28.4875 74.122 28.4495 74.1143 28.4465C74.1143 28.4465 74.1143 28.4465 74.1106 28.4495C74.1106 28.4495 74.1143 28.4465 74.1143 28.44C74.1106 28.4465 74.1106 28.4465 74.1054 28.4495C67.2622 36.7095 65.1388 47.9697 72.4196 54.0211C72.5197 54.0844 72.6223 54.151 72.7223 54.2175C73.2664 54.5405 74.4087 55.1896 75.5796 55.6551C75.5842 55.6582 75.5842 55.6582 75.5886 55.6582C69.6164 53.2327 71.4194 46.3229 74.1481 41.566ZM74.1054 28.4465V28.4495C74.1106 28.4465 74.1106 28.44 74.1143 28.44C74.1106 28.44 74.1106 28.4465 74.1054 28.4465Z" fill="url(#paint4_linear_7008_3524)"/>
<path d="M87.7404 40.4642C88.0145 39.6313 88.1857 38.4121 88.1513 37.6946C88.2164 38.5622 87.4028 42.3704 84.058 43.3838C80.4852 44.4681 76.7751 41.865 76.0343 38.6021C75.3276 39.6947 74.6141 40.7872 74.1484 41.5662C77.6296 46.2344 85.4724 46.9818 87.7404 40.4642" fill="url(#paint5_linear_7008_3524)"/>
<path d="M76.0309 38.6055C75.4562 36.3254 75.8575 33.7478 77.3377 31.9029C75.667 30.2341 74.4153 28.8047 74.1386 28.4848C71.7706 31.8256 71.2679 36.5009 74.1272 41.5346C74.1298 41.541 74.1386 41.5536 74.147 41.5664C74.6126 40.7874 75.3262 39.698 76.0309 38.6055" fill="url(#paint6_linear_7008_3524)"/>
<path d="M87.3982 29.0147C87.2817 28.9863 87.1645 28.9514 87.0435 28.9185C86.9542 28.8963 86.8611 28.8678 86.7675 28.8456C86.6655 28.8139 86.5592 28.7917 86.4597 28.7697C86.2558 28.7252 86.052 28.6777 85.8417 28.6398L85.7564 28.6714C85.7564 28.6714 82.9002 30.9578 80.357 33.5526C81.5139 32.6489 83.0616 32.2732 84.5886 32.6818C85.9221 33.0351 86.963 33.9059 87.5722 35.0143C87.6136 35.084 87.6468 35.155 87.6786 35.2215C87.6989 35.2644 87.7244 35.3025 87.741 35.3437C87.7849 35.4418 87.82 35.5401 87.8653 35.6394C88.0927 36.2651 88.2029 36.9396 88.1584 37.63C88.1584 37.7073 88.1584 37.7884 88.1519 37.8675C88.1584 38.599 87.9907 39.6947 87.741 40.4642C85.473 46.9818 77.6302 46.2344 74.149 41.5662C71.4204 46.3231 69.6173 53.2329 75.5928 55.6649C75.7156 55.7188 75.9208 55.7883 76.1757 55.8802C77.6282 56.3647 79.9377 56.8397 82.2281 56.7288C99.3555 55.9308 101.776 33.317 87.3982 29.0147" fill="url(#paint7_linear_7008_3524)"/>
<path d="M80.3705 33.5393C81.8244 32.0655 83.3783 30.6575 85.8419 28.6391C82.8857 28.066 79.757 28.9571 77.3933 31.8343C77.3774 31.8546 77.3557 31.8799 77.3398 31.9021C78.0629 32.626 78.8682 33.3986 79.7142 34.1523C79.9155 33.9288 80.136 33.7217 80.3705 33.5393" fill="url(#paint8_linear_7008_3524)"/>
<path d="M79.7199 34.1531C78.8605 33.3943 78.0501 32.6141 77.3238 31.8839C77.3251 31.8902 77.3346 31.8996 77.3392 31.9029C75.838 33.7288 75.4576 36.3254 76.0324 38.6055C76.9485 37.3387 78.5184 35.4134 79.4759 34.4508C79.5511 34.3412 79.6333 34.2481 79.7199 34.1531Z" fill="url(#paint9_linear_7008_3524)"/>
<path d="M88.1617 37.28C88.1661 37.7012 88.1139 38.1286 88.0037 38.5531C87.9993 38.5531 87.9993 38.5531 87.9993 38.5594C87.9993 38.5594 87.9993 38.5594 87.9993 38.5625C87.3131 41.1137 84.6716 42.6317 82.1028 41.9496C82.099 41.9496 82.099 41.9496 82.099 41.9496C82.099 41.9496 82.099 41.9496 82.094 41.9496C79.5201 41.2636 77.9915 38.6309 78.6784 36.0766C78.8384 35.4686 79.1155 34.9291 79.471 34.454C78.5153 35.4168 76.948 37.3389 76.0319 38.6056V38.6024C76.0319 38.6024 76.0319 38.6056 76.0273 38.6056C76.0273 38.6087 76.0319 38.6087 76.0319 38.6087C76.0319 38.6056 76.0339 38.6056 76.0339 38.6024C76.7747 41.8653 80.4847 44.4684 84.0575 43.384C87.2283 42.4214 88.1203 38.9584 88.1508 37.8582C88.1573 38.1096 88.1374 38.406 88.0962 38.7291C88.1955 38.0654 88.1852 37.5478 88.1617 37.28" fill="url(#paint10_linear_7008_3524)"/>
</g>
<defs>
<linearGradient id="paint0_linear_7008_3524" x1="75.1867" y1="25.2968" x2="88.8675" y2="30.0201" gradientUnits="userSpaceOnUse">
<stop stop-color="#6380C9"/>
<stop offset="1" stop-color="#355298"/>
</linearGradient>
<linearGradient id="paint1_linear_7008_3524" x1="59.8976" y1="25.6551" x2="79.8583" y2="32.5464" gradientUnits="userSpaceOnUse">
<stop stop-color="#CCE310"/>
<stop offset="1" stop-color="#40B93C"/>
</linearGradient>
<linearGradient id="paint2_linear_7008_3524" x1="77.4172" y1="25.2012" x2="90.9383" y2="51.1451" gradientUnits="userSpaceOnUse">
<stop stop-color="#EE2C27"/>
<stop offset="1" stop-color="#F68712"/>
</linearGradient>
<linearGradient id="paint3_linear_7008_3524" x1="87.4439" y1="10.7527" x2="95.743" y2="-1.60434" gradientUnits="userSpaceOnUse">
<stop stop-color="#69B0E4"/>
<stop offset="1" stop-color="#3770AD"/>
</linearGradient>
<linearGradient id="paint4_linear_7008_3524" x1="67.8709" y1="42.0495" x2="75.5886" y2="42.0495" gradientUnits="userSpaceOnUse">
<stop stop-color="#51ADE5"/>
<stop offset="1" stop-color="#3872C1"/>
</linearGradient>
<linearGradient id="paint5_linear_7008_3524" x1="74.1483" y1="41.4527" x2="88.1558" y2="41.4527" gradientUnits="userSpaceOnUse">
<stop stop-color="#F14E1C"/>
<stop offset="1" stop-color="#EE242E"/>
</linearGradient>
<linearGradient id="paint6_linear_7008_3524" x1="72.1678" y1="35.0254" x2="77.3379" y2="35.0254" gradientUnits="userSpaceOnUse">
<stop stop-color="#6380C9"/>
<stop offset="1" stop-color="#355298"/>
</linearGradient>
<linearGradient id="paint7_linear_7008_3524" x1="88.0498" y1="35.1819" x2="80.5047" y2="56.8017" gradientUnits="userSpaceOnUse">
<stop stop-color="#F68712"/>
<stop offset="1" stop-color="#F14624"/>
</linearGradient>
<linearGradient id="paint8_linear_7008_3524" x1="81.4199" y1="38.6417" x2="81.6902" y2="25.3176" gradientUnits="userSpaceOnUse">
<stop stop-color="#D9521F"/>
<stop offset="1" stop-color="#1C61B6"/>
</linearGradient>
<linearGradient id="paint9_linear_7008_3524" x1="77.6746" y1="38.853" x2="78.0172" y2="21.9711" gradientUnits="userSpaceOnUse">
<stop stop-color="#D9521F"/>
<stop offset="1" stop-color="#1C61B6"/>
</linearGradient>
<linearGradient id="paint10_linear_7008_3524" x1="75.7334" y1="41.0595" x2="85.5605" y2="37.537" gradientUnits="userSpaceOnUse">
<stop stop-color="#F68712"/>
<stop offset="0.692308" stop-color="#F14624"/>
<stop offset="1" stop-color="#F14624"/>
</linearGradient>
<clipPath id="clip0_7008_3524">
<rect width="160" height="93" fill="white"/>
</clipPath>
</defs>
</svg>
