<svg width="115" height="139" viewBox="0 0 115 139" fill="none" xmlns="http://www.w3.org/2000/svg">
<path d="M58.7138 20.3232L37.4375 41.0503M58.7138 20.3232L79.4515 41.0503M58.7138 20.3232V73.083M37.4375 41.0503L58.7138 73.083M37.4375 41.0503H79.4515M58.7138 73.083L79.4515 41.0503" stroke="#CCCCCC" stroke-width="1.40156"/>
<path d="M6.59941 17.9006L35.2821 1.48047M6.59941 17.9006L1.34766 48.049M6.59941 17.9006L37.5713 40.9157M35.2821 1.48047L86.7224 6.05657M35.2821 1.48047L37.5713 40.9157M35.2821 1.48047L58.713 20.4578L86.7224 6.05657M86.7224 6.05657L111.904 24.7647M86.7224 6.05657L79.1814 40.9157M111.904 24.7647L113.52 43.7421M111.904 24.7647L79.1814 40.9157M113.52 43.7421L95.7446 60.4314M113.52 43.7421L79.1814 40.9157M95.7446 60.4314L87.1263 79.9471M95.7446 60.4314L79.1814 40.9157M95.7446 60.4314L58.713 72.8138M87.1263 79.9471L69.6205 88.6956M87.1263 79.9471L58.713 72.8138M69.6205 88.6956L47.8055 116.152L44.1697 95.0214M69.6205 88.6956L44.1697 95.0214M69.6205 88.6956L58.713 72.8138M44.1697 95.0214L36.6287 72.8138M44.1697 95.0214L58.713 72.8138M36.6287 72.8138L25.5865 57.8742M36.6287 72.8138H58.713M36.6287 72.8138L37.5713 40.9157M25.5865 57.8742L1.34766 48.049M25.5865 57.8742L37.5713 40.9157M1.34766 48.049L37.5713 40.9157" stroke="#555555" stroke-width="0.934375"/>
<ellipse cx="1.3466" cy="48.1838" rx="1.3466" ry="1.34591" fill="white"/>
<ellipse cx="6.73332" cy="17.7658" rx="1.3466" ry="1.34591" fill="white"/>
<ellipse cx="35.2802" cy="1.34591" rx="1.3466" ry="1.34591" fill="white"/>
<ellipse cx="86.7216" cy="6.19064" rx="1.3466" ry="1.34591" fill="white"/>
<ellipse cx="111.768" cy="24.7649" rx="1.3466" ry="1.34591" fill="white"/>
<ellipse cx="113.651" cy="43.6076" rx="1.3466" ry="1.34591" fill="white"/>
<ellipse cx="95.6083" cy="60.2971" rx="1.3466" ry="1.34591" fill="white"/>
<ellipse cx="86.7216" cy="79.6789" rx="1.3466" ry="1.34591" fill="white"/>
<ellipse cx="69.4833" cy="88.8303" rx="1.3466" ry="1.34591" fill="white"/>
<ellipse cx="43.8974" cy="95.2902" rx="1.3466" ry="1.34591" fill="white"/>
<ellipse cx="36.6279" cy="72.6789" rx="1.3466" ry="1.34591" fill="white"/>
<ellipse cx="25.5849" cy="57.8742" rx="1.3466" ry="1.34591" fill="white"/>
<ellipse cx="37.436" cy="40.9155" rx="1.88525" ry="1.88428" fill="#5499D3"/>
<ellipse cx="78.9126" cy="40.9155" rx="1.88525" ry="1.88428" fill="#5499D3"/>
<ellipse cx="58.7134" cy="40.9155" rx="1.88525" ry="1.88428" fill="#ED1F33"/>
<ellipse cx="48.074" cy="116.152" rx="2.82787" ry="2.82642" fill="#ED1F33"/>
<ellipse cx="58.7134" cy="73.2173" rx="1.88525" ry="1.88428" fill="#F6C951"/>
<ellipse cx="58.7134" cy="20.189" rx="1.88525" ry="1.88428" fill="#F6C951"/>
<path fill-rule="evenodd" clip-rule="evenodd" d="M33.9023 111H23V126.1H33.9079C34.5649 126.1 35.1092 126.043 35.5696 125.886C38.8504 124.765 40.4796 121.746 40.438 118.558C40.3961 115.35 38.6642 112.316 35.5574 111.217C35.1058 111.057 34.5663 111 33.9023 111ZM33.9023 109.5C34.6319 109.5 35.3698 109.559 36.0577 109.803C43.7039 112.508 44.0931 124.56 36.0545 127.305C35.3675 127.54 34.6338 127.6 33.9079 127.6H21.5V109.5H33.9023Z" fill="#B8B8B8"/>
<path fill-rule="evenodd" clip-rule="evenodd" d="M21.5 139V127.6H23V139H21.5Z" fill="#B8B8B8"/>
<path fill-rule="evenodd" clip-rule="evenodd" d="M67.7023 111H56.8V126.1H67.7079C68.3649 126.1 68.9092 126.043 69.3696 125.886C72.6504 124.765 74.2796 121.746 74.238 118.558C74.1961 115.35 72.4642 112.316 69.3574 111.217C68.9058 111.057 68.3663 111 67.7023 111ZM67.7023 109.5C68.4319 109.5 69.1698 109.559 69.8577 109.803C77.5039 112.508 77.8931 124.56 69.8545 127.305C69.1675 127.54 68.4338 127.6 67.7079 127.6H55.3V109.5H67.7023Z" fill="#B8B8B8"/>
<path fill-rule="evenodd" clip-rule="evenodd" d="M55.3 139V127.6H56.8V139H55.3Z" fill="#B8B8B8"/>
<path fill-rule="evenodd" clip-rule="evenodd" d="M75.7484 139H97L86.7 110.5H85.7L75.7484 139ZM86.2 112.5L77.5984 137.65H94.8429L86.2 112.5Z" fill="#B8B8B8"/>
<path fill-rule="evenodd" clip-rule="evenodd" d="M47.45 139V121.9C48.022 122.003 48.3943 122.02 48.95 121.85V139H47.45Z" fill="#B8B8B8"/>
</svg>
