<svg width="64" height="64" viewBox="0 0 64 64" fill="none" xmlns="http://www.w3.org/2000/svg">
<g clip-path="url(#clip0_6532_1871)">
<path d="M31.9992 56.8889C47.905 56.8889 60.7992 44.1539 60.7992 28.4444C60.7992 12.735 47.905 0 31.9992 0C16.0934 0 3.19922 12.735 3.19922 28.4444C3.19922 44.1539 16.0934 56.8889 31.9992 56.8889Z" fill="#FFF59D"/>
<path d="M50.7189 28.4449C50.7189 17.4938 41.215 8.81821 29.839 10.0982C21.199 11.0938 14.287 17.9204 13.423 26.4538C12.703 32.996 15.439 38.8271 20.047 42.5249C22.063 44.2315 23.359 46.6493 23.359 49.3515V49.7782H40.6389V49.636C40.6389 47.076 41.7909 44.516 43.8069 42.8093C47.9829 39.396 50.7189 34.276 50.7189 28.4449Z" fill="#FBC02D"/>
<path d="M41.5025 25.8849L37.1825 23.0405C36.7505 22.756 36.0305 22.756 35.5985 23.0405L31.9985 25.316L28.5425 23.0405C28.1105 22.756 27.3905 22.756 26.9585 23.0405L22.6385 25.8849C22.3505 26.1694 22.0625 26.4538 22.0625 26.8805C22.0625 27.3071 22.0625 27.7338 22.3505 28.0183L27.8225 34.7027V49.7783H30.7025V34.1338C30.7025 33.8494 30.5585 33.5649 30.4145 33.2805L25.6625 27.4494L27.8225 26.0271L31.2785 28.3027C31.7105 28.5871 32.4305 28.5871 32.8625 28.3027L36.3185 26.0271L38.4785 27.4494L33.7265 33.2805C33.5825 33.5649 33.4385 33.8494 33.4385 34.1338V49.7783H36.3185V34.7027L41.7905 28.0183C42.0785 27.7338 42.2225 27.3071 42.0785 26.8805C41.9345 26.4538 41.7905 26.0271 41.5025 25.8849Z" fill="#FFF59D"/>
<path d="M31.9997 64.0001C34.3856 64.0001 36.3197 62.0899 36.3197 59.7335C36.3197 57.377 34.3856 55.4668 31.9997 55.4668C29.6138 55.4668 27.6797 57.377 27.6797 59.7335C27.6797 62.0899 29.6138 64.0001 31.9997 64.0001Z" fill="#5C6BC0"/>
<path d="M34.8794 61.1555H29.1194C25.9514 61.1555 23.3594 58.5955 23.3594 55.4666V48.3555H40.6394V55.4666C40.6394 58.5955 38.0474 61.1555 34.8794 61.1555Z" fill="#9FA8DA"/>
<path d="M40.6394 55.4672L23.9354 57.7428C24.3674 58.7383 25.2314 59.7339 26.2394 60.3028L39.7754 58.4539C40.3514 57.6005 40.6394 56.605 40.6394 55.4672ZM23.3594 52.1961V55.0405L40.6394 52.6228V49.7783L23.3594 52.1961Z" fill="#5C6BC0"/>
</g>
<defs>
<clipPath id="clip0_6532_1871">
<rect width="64" height="64" fill="white"/>
</clipPath>
</defs>
</svg>
