<svg width="64" height="64" viewBox="0 0 64 64" fill="none" xmlns="http://www.w3.org/2000/svg">
<g clip-path="url(#clip0_6536_2036)">
<path d="M59.0214 57.6004C47.3681 57.6004 31.1992 64.0004 31.1992 64.0004V28.8004C31.1992 28.8004 47.1992 22.4004 62.3992 22.4004L59.0214 57.6004Z" fill="#5C6BC0"/>
<path d="M4.80156 57.6004C15.8416 57.6004 31.2016 64.0004 31.2016 64.0004V28.8004C31.2016 28.8004 16.0016 22.4004 1.60156 22.4004L4.80156 57.6004Z" fill="#7986CB"/>
<path d="M32.001 25.6C39.4423 25.6 45.4747 19.8692 45.4747 12.8C45.4747 5.73075 39.4423 0 32.001 0C24.5597 0 18.5273 5.73075 18.5273 12.8C18.5273 19.8692 24.5597 25.6 32.001 25.6Z" fill="#FBC02D"/>
<path d="M60.6316 44.8002H62.3158C63.3263 44.8002 64 44.1602 64 43.2002V36.8002C64 35.8402 63.3263 35.2002 62.3158 35.2002H60.6316C57.7684 35.2002 55.5789 37.2802 55.5789 40.0002C55.5789 42.7202 57.7684 44.8002 60.6316 44.8002ZM3.36842 35.2002H1.68421C0.673684 35.2002 0 35.8402 0 36.8002V43.2002C0 44.1602 0.673684 44.8002 1.68421 44.8002H3.36842C6.23158 44.8002 8.42105 42.7202 8.42105 40.0002C8.42105 37.2802 6.23158 35.2002 3.36842 35.2002Z" fill="#FBC02D"/>
</g>
<defs>
<clipPath id="clip0_6536_2036">
<rect width="64" height="64" fill="white"/>
</clipPath>
</defs>
</svg>
