<svg  viewBox="0 0 24 24" fill="none" xmlns="http://www.w3.org/2000/svg">
<path d="M6.94459 12.3284H19M6.94459 12.3284L5.02668 18.0821C4.99826 18.1586 4.9924 18.2417 5.0098 18.3214C5.0272 18.4011 5.06713 18.4742 5.12484 18.5319C5.18255 18.5896 5.25561 18.6295 5.33535 18.6469C5.41509 18.6643 5.49815 18.6585 5.57465 18.6301L19 12.3284M6.94459 12.3284L5.02668 6.57465C4.99826 6.49815 4.9924 6.41509 5.0098 6.33535C5.0272 6.25561 5.06713 6.18255 5.12484 6.12484C5.18255 6.06713 5.25561 6.0272 5.33535 6.0098C5.41509 5.9924 5.49815 5.99826 5.57465 6.02668L19 12.3284" stroke="#FEFEFE" stroke-width="1.5" stroke-linecap="round" stroke-linejoin="round"/>
</svg>
