<svg width="64" height="64" viewBox="0 0 64 64" fill="none" xmlns="http://www.w3.org/2000/svg">
<g clip-path="url(#clip0_6536_2042)">
<path d="M33.5992 28.7998H54.3992L63.9992 38.3998V11.1998C63.9992 7.6798 61.1192 4.7998 57.5992 4.7998H33.5992C30.0792 4.7998 27.1992 7.6798 27.1992 11.1998V22.3998C27.1992 25.9198 30.0792 28.7998 33.5992 28.7998Z" fill="#1565C0"/>
<path d="M30.4 24H9.6L0 33.6V6.4C0 2.88 2.88 0 6.4 0H30.4C33.92 0 36.8 2.88 36.8 6.4V17.6C36.8 21.12 33.92 24 30.4 24Z" fill="#2196F3"/>
<path d="M12.8008 51.2002C17.2191 51.2002 20.8008 47.6185 20.8008 43.2002C20.8008 38.7819 17.2191 35.2002 12.8008 35.2002C8.3825 35.2002 4.80078 38.7819 4.80078 43.2002C4.80078 47.6185 8.3825 51.2002 12.8008 51.2002Z" fill="#FBC02D"/>
<path d="M51.1992 51.2002C55.6175 51.2002 59.1992 47.6185 59.1992 43.2002C59.1992 38.7819 55.6175 35.2002 51.1992 35.2002C46.7809 35.2002 43.1992 38.7819 43.1992 43.2002C43.1992 47.6185 46.7809 51.2002 51.1992 51.2002Z" fill="#FBC02D"/>
<path d="M25.6 60.8004C25.6 60.8004 22.08 54.4004 12.8 54.4004C3.52 54.4004 0 60.8004 0 60.8004V64.0004H25.6V60.8004ZM64 60.8004C64 60.8004 60.48 54.4004 51.2 54.4004C41.92 54.4004 38.4 60.8004 38.4 60.8004V64.0004H64V60.8004Z" fill="#607D8B"/>
</g>
<defs>
<clipPath id="clip0_6536_2042">
<rect width="64" height="64" fill="white"/>
</clipPath>
</defs>
</svg>
