<svg width="596" height="630" viewBox="0 0 596 630" fill="none" xmlns="http://www.w3.org/2000/svg">
<path opacity="0.05" d="M462.793 0.989909L468.745 7.88271C487.315 29.4288 508.677 53.7291 522.71 80.2401C534.85 103.524 543.795 128.162 549.32 153.559C555.441 181.016 556.436 208.731 554.864 236.483C554.029 250.933 550.263 265.234 547.677 279.564C543.455 303.094 534.754 325.379 523.512 346.501C515.209 362.108 504.994 376.835 495.511 391.888C493.765 394.784 491.237 395.85 488.048 393.002C485.905 391.087 483.326 389.6 479.328 386.782C481.298 395.958 482.517 403.569 484.558 410.951C490.923 433.452 496.659 456.146 504.385 478.231C520.079 523.161 540.029 566.29 571.848 603.652C579.067 612.129 587.248 619.897 596 629.031C593.863 629.398 591.714 629.651 589.551 629.801C530.648 629.801 471.75 629.657 412.846 630C402.926 630 403.222 622.732 401.284 617.807C395.419 603.332 390.344 588.587 386.064 573.63C381.04 555.452 377.151 536.979 373.211 518.555C370.529 505.941 368.592 493.176 366.237 480.188C317.452 494.103 265.15 492.586 217.379 475.871C215.775 487.046 214.203 497.746 212.708 508.451C209.519 531.229 206.638 554.055 203.103 576.797C200.94 590.772 197.873 604.615 195.05 618.488C192.958 628.663 191.354 629.813 180.574 629.813H0C5.40272 624.268 9.34887 619.848 13.6864 615.826C26.2757 604.157 33.7895 589.466 40.5012 574.576C47.091 559.98 52.5835 544.891 57.7488 529.778C64.4605 510.143 70.4086 490.376 76.6134 470.645C81.3039 455.79 85.8212 440.882 90.563 426.04C93.6173 416.466 97.0308 406.995 99.9632 397.391C101.221 393.682 100.476 389.624 97.9548 386.529C84.0052 367.581 72.2181 347.536 64.2488 325.71C59.122 311.638 53.2636 297.663 49.8629 283.171C42.7983 253.197 38.2297 222.76 42.4004 191.98C44.858 171.858 48.4897 151.874 53.2829 132.124C56.998 117.595 63.3954 103.554 69.8311 89.7957C82.1958 63.393 99.0071 39.0315 119.611 17.6384C124.84 12.2555 129.569 6.52937 134.516 0.965837L135.615 0C138.875 5.3829 142.473 11.6834 145.61 17.1326C157.051 37.0264 169.326 56.5469 179.541 76.9887C189.166 96.2443 196.975 116.259 204.771 136.351C210.398 150.495 215.005 164.976 218.566 179.697C223.552 201.265 227.46 223.104 230.771 244.948C233.434 261.591 235.185 278.354 236 295.165C236.892 315.113 236.456 335.139 236 355.117C235.898 360.024 237.745 362.072 242.417 363.137C258.766 366.979 275.552 368.954 292.408 369.014C313.332 369.014 333.993 368.653 354.154 362.993C356.336 362.385 359.249 360.078 359.544 358.212C360.609 351.962 360.52 345.562 361.078 339.233C363.798 308.146 365.614 276.89 369.689 245.966C372.929 223.453 377.588 201.139 383.638 179.143C389.984 155.041 396.786 130.89 406.013 107.672C415.92 82.7208 428.329 58.5881 440.733 34.5818C446.816 22.7985 455.362 12.1471 462.793 0.989909ZM456.729 53.8254L454.849 53.2534C448.991 65.115 442.645 76.796 437.415 88.8744C424.64 117.866 414.374 147.773 406.712 178.312C402.914 193.63 399.859 209.123 396.792 224.585C394.001 238.686 391.056 252.812 389.291 267.028C387.058 285.025 385.037 303.022 384.582 321.025C383.747 355.189 383.504 389.389 384.164 423.553C384.511 441.34 387.18 459.09 389.118 476.846C390.324 487.841 391.556 498.884 393.776 509.734C396.985 525.389 400.7 540.953 404.915 556.434C409.709 573.907 415.375 591.17 420.367 607.842H546.278C538.431 595.752 530.583 584.245 523.416 572.432C518.36 564.123 512.957 555.723 509.781 546.758C506.727 538.328 500.4 531.886 497.891 522.866C492.277 502.84 482.703 483.807 476.479 463.961C469.889 442.821 465.038 421.187 459.931 399.674C456.447 384.946 453.322 370.007 450.864 355.051C448.195 338.836 446.206 322.507 444.396 306.177C442.356 287.801 439.898 269.412 439.289 250.969C437.839 206.792 437.127 162.435 444.518 118.432C447.502 100.682 451.025 82.9918 454.336 65.2716C454.964 61.4843 455.888 57.6548 456.729 53.8254ZM359.288 384.344L322.861 389.251C293.062 393.177 263.578 390.1 234.961 382.917C209.59 376.462 186.118 364.667 166.329 348.428C134.157 322.428 114.022 289.294 100.329 252.33C92.9884 232.563 87.2136 212.26 86.2254 191.3C85.2116 169.799 85.757 148.219 86.0842 126.687C86.2061 119.456 87.8296 112.236 88.715 105.023L86.9697 104.776C85.5901 108.166 84.2491 111.568 82.8182 114.94C72.8854 137.959 66.9181 162.32 65.1343 187.097C63.883 208.882 64.4669 230.72 66.8795 252.415C68.5029 268.371 72.879 284.272 77.8134 299.705C87.0018 328.636 101.413 355.87 120.432 380.225C140.208 406.002 165.707 427.449 195.165 443.092C220.716 456.435 248.865 464.828 277.939 467.785C305.433 470.765 331.992 467.291 358.376 460.746C363.381 459.499 364.145 457.049 363.85 452.792C362.804 438.064 362.104 423.174 361.232 408.386C360.622 400.288 359.871 392.105 359.281 384.398L359.288 384.344ZM175.505 608.33C178.174 593.44 181.017 579.139 183.192 564.755C185.284 550.943 186.676 537.04 188.422 523.197C190.635 505.904 192.92 488.606 195.396 471.343C195.884 467.839 194.383 466.665 191.354 464.798C175.954 455.52 160.523 446.229 145.899 435.933C136.204 429.111 127.849 420.615 118.417 412.45C117.551 414.1 116.8 415.798 116.165 417.538C111.911 431.874 107.92 446.271 103.486 460.541C98.6414 476.214 93.1489 491.628 88.4006 507.404C79.1095 538.148 68.6248 568.47 53.5267 597.203C51.7814 600.653 50.1773 604.254 48.2973 608.294L175.505 608.33ZM141.189 50.9292L139.9 51.4049C139.797 52.3863 139.797 53.3738 139.9 54.3492C144.257 73.6891 150.083 92.8363 152.701 112.369C156.32 138.452 158.424 164.705 159.015 191.005C159.663 226.15 156.018 261.151 149.877 295.887C149.634 298.073 150.224 300.271 151.533 302.089C166.791 322.314 185.431 339.005 209.076 350.571C213.921 352.943 214.883 351.649 214.761 347.398C214.113 323.952 213.594 300.505 212.753 277.041C212.561 269.436 211.829 261.85 210.571 254.329C207.081 234.959 203.873 215.499 199.028 196.406C193.677 175.248 187.344 154.258 180.093 133.593C174.267 116.999 166.823 100.869 159.323 84.8523C153.952 73.3519 147.292 62.273 141.189 50.9834V50.9292ZM507.779 100.899C507.779 103.662 507.676 104.692 507.779 105.691C509.524 120.714 512.014 135.701 512.887 150.772C513.471 162.079 513.015 173.411 511.507 184.641C509.396 201 507.426 217.709 502.787 233.629C498.045 250.223 490.724 266.221 483.608 282.129C479.963 290.372 475.209 298.151 469.466 305.268C467.265 307.52 466.367 310.639 467.06 313.631C468.927 325.806 470.268 338.059 472.045 350.252C473.264 358.561 474.869 366.846 476.402 375.125C476.524 375.733 477.538 376.191 478.147 376.763C534.035 308.971 553.195 192.492 507.773 100.959V100.899H507.779ZM464.012 270.466C479.803 240.258 488.799 207.328 490.429 173.718C492.559 139.374 487.509 104.975 475.574 72.4488C462.408 113.946 455.33 229.986 464.012 270.514V270.466ZM130.968 268.629C140.939 212.392 133.881 84.178 120.509 74.3755C98.4168 139.91 101.625 204.077 130.917 268.678L130.968 268.629Z" fill="url(#paint0_linear_6725_2267)"/>
<defs>
<linearGradient id="paint0_linear_6725_2267" x1="0" y1="0" x2="629.032" y2="595.084" gradientUnits="userSpaceOnUse">
<stop stop-color="#A84E61"/>
<stop offset="1" stop-color="#470FF4"/>
</linearGradient>
</defs>
</svg>
