<svg width="190" height="27" viewBox="0 0 190 27" fill="none" xmlns="http://www.w3.org/2000/svg">
<path d="M2.74051 12.9904V23.0025H0V2.7627L6.88002 14.7014L13.7631 2.7627V23.0025H11.0226V12.9904L6.89212 20.1584L2.74051 12.9904Z" fill="#FEFEFE"/>
<path d="M20.1385 23.0088H17.397V4.03711H20.1375V23.0088H20.1385Z" fill="#FEFEFE"/>
<path d="M26.521 10.2931V23.0174H23.7583V0.0625L33.404 16.77V4.04273H36.1587V27.0006L26.521 10.2931Z" fill="#FEFEFE"/>
<path d="M42.5393 17.5793V22.9985H39.7988V4.02686H42.5393V14.8811H49.4194V4.03779H52.1599V23.0094H49.4194V17.5793H42.5393V17.5793Z" fill="#FEFEFE"/>
<path d="M57.6493 23.0085H54.7988L61.2814 0L67.7641 23.0085H64.9166L61.2825 10.462L57.6493 23.0085Z" fill="#FEFEFE"/>
<path d="M78.4462 4.03703H81.2008V6.73521H78.4462C74.6456 6.66072 71.5036 9.63299 71.427 13.3749C71.3513 17.1168 74.3702 20.2102 78.1708 20.2857C78.2626 20.2877 78.3544 20.2877 78.4462 20.2857H81.2008V22.9839H78.4462C73.1255 22.9839 68.8115 18.7365 68.8115 13.498C68.8115 8.25957 73.1255 4.01221 78.4462 4.01221V4.03703Z" fill="#FEFEFE"/>
<path d="M97.1237 4.03965V6.73782H87.486V14.882H97.1237V17.5802H87.486V20.2784H97.1237V22.9766H84.7344V4.00488L97.1237 4.03965Z" fill="#FEFEFE"/>
<path d="M103.517 10.2931V23.0174H100.749V0.0625L110.383 16.77V4.04273H113.138V27.0006L103.517 10.2931Z" fill="#FEFEFE"/>
<path d="M118.615 23.0085H115.765L122.247 0L128.735 23.0085H125.881L122.247 10.462L118.615 23.0085Z" fill="#FEFEFE"/>
<path d="M134.828 23.0107H132.088V20.3125H134.828V23.0107Z" fill="#FEFEFE"/>
<path d="M148.091 23.0115C142.773 23.0085 138.464 18.7622 138.467 13.5257C138.47 8.2902 142.783 4.0478 148.102 4.05078C153.421 4.05376 157.729 8.30014 157.725 13.5366C157.724 16.0491 156.71 18.4583 154.905 20.2349C153.12 22.0463 150.654 23.0512 148.091 23.0115ZM148.091 20.3133C151.892 20.3133 154.974 17.2795 154.974 13.5376C154.974 9.79471 151.892 6.76087 148.092 6.76087C144.29 6.76087 141.209 9.79472 141.209 13.5366C141.209 15.3341 141.934 17.059 143.226 18.3292C144.502 19.6192 146.263 20.3332 148.092 20.3014V20.3133H148.091Z" fill="#FEFEFE"/>
<path d="M163.769 15.814V23.0088H161.028V4.03711H166.535C170.336 4.03711 173.418 7.07095 173.417 10.8138C173.417 12.6073 172.694 14.3283 171.407 15.5985C170.733 16.2757 169.922 16.806 169.026 17.1556L174.971 23.0088H171.076L163.769 15.814ZM163.769 6.74919V14.8805H166.509C168.79 14.8229 170.591 12.9559 170.532 10.7106C170.475 8.54665 168.707 6.80579 166.509 6.75018H163.769V6.74919Z" fill="#FEFEFE"/>
<path d="M185.87 4.03711H190V6.73528H185.87C182.069 6.6608 178.927 9.63307 178.851 13.375C178.775 17.1169 181.794 20.2103 185.594 20.2858C185.686 20.2878 185.778 20.2878 185.87 20.2858H187.241V14.8805H184.486V12.1823H189.992V23.0227H185.862C180.541 23.0227 176.227 18.7753 176.227 13.5368C176.227 8.29838 180.541 4.051 185.862 4.051L185.87 4.03711Z" fill="#FEFEFE"/>
</svg>
