<svg width="50" height="56" viewBox="0 0 50 56" fill="none" xmlns="http://www.w3.org/2000/svg">
<path d="M38.9449 0.00696707C39.0564 0.222453 39.1247 0.481894 39.2873 0.648065C41.1342 2.5349 42.6743 4.69727 43.8515 7.05742C44.87 9.13027 45.6204 11.3237 46.0839 13.5847C46.5974 16.029 46.6808 18.4964 46.549 20.967C46.479 22.2534 46.163 23.5265 45.9461 24.8023C45.5919 26.8971 44.8619 28.881 43.9188 30.7614C43.2223 32.1508 42.3653 33.4619 41.5697 34.802C41.4233 35.0598 41.2112 35.1547 40.9436 34.9012C40.7638 34.7307 40.5475 34.5983 40.2121 34.3474C40.3773 35.1644 40.4796 35.8419 40.6508 36.4991C41.1848 38.5022 41.666 40.5226 42.3141 42.4887C43.6308 46.4886 45.3044 50.3282 47.9738 53.6543C48.5794 54.4091 49.2658 55.1005 50 55.9137C49.8207 55.9464 49.6404 55.9689 49.459 55.9823C44.5174 55.9823 39.5764 55.9694 34.6348 56C33.8025 56 33.8273 55.353 33.6647 54.9145C33.1727 53.6259 32.7469 52.3132 32.3879 50.9817C31.9664 49.3634 31.6402 47.7188 31.3097 46.0786C31.0847 44.9556 30.9221 43.8192 30.7246 42.6629C26.6319 43.9017 22.2442 43.7666 18.2365 42.2786C18.1019 43.2735 17.9701 44.226 17.8446 45.1791C17.5771 47.2069 17.3354 49.239 17.0388 51.2636C16.8574 52.5077 16.6001 53.7401 16.3632 54.9751C16.1878 55.881 16.0532 55.9834 15.1488 55.9834H0C0.453249 55.4897 0.784301 55.0963 1.14819 54.7382C2.20434 53.6993 2.83469 52.3914 3.39775 51.0658C3.95058 49.7665 4.41137 48.4232 4.8447 47.0777C5.40776 45.3297 5.90676 43.5699 6.4273 41.8133C6.82079 40.4909 7.19976 39.1637 7.59757 37.8424C7.8538 36.9901 8.14017 36.1469 8.38617 35.2919C8.49168 34.9617 8.42924 34.6005 8.21768 34.3249C7.04742 32.638 6.05857 30.8536 5.39 28.9105C4.9599 27.6577 4.46843 26.4136 4.18313 25.1234C3.59046 22.455 3.20719 19.7453 3.55708 17.0051C3.76325 15.2137 4.06793 13.4346 4.47004 11.6764C4.78171 10.383 5.3184 9.13295 5.85832 7.90811C6.89562 5.5576 8.30597 3.38881 10.0344 1.48428C10.4732 1.00506 10.8699 0.495295 11.2849 0H11.3963C11.6698 0.479214 11.9524 0.954139 12.2156 1.43925C13.1754 3.21031 14.2052 4.94813 15.0622 6.76796C15.8696 8.4822 16.5247 10.264 17.1788 12.0527C17.6509 13.3119 18.0374 14.601 18.3361 15.9116C18.7544 17.8317 19.0822 19.7759 19.36 21.7206C19.5834 23.2022 19.7303 24.6945 19.7987 26.1912C19.8735 27.967 19.8369 29.7499 19.7987 31.5284C19.7901 31.9653 19.9451 32.1476 20.337 32.2424C21.7086 32.5844 23.1168 32.7603 24.5309 32.7656C26.2863 32.7656 28.0196 32.7335 29.7109 32.2296C29.894 32.1754 30.1383 31.9701 30.1631 31.804C30.2525 31.2476 30.2449 30.6778 30.2918 30.1144C30.52 27.3468 30.6723 24.5643 31.0142 21.8112C31.286 19.807 31.6768 17.8204 32.1844 15.8623C32.7168 13.7166 33.2874 11.5665 34.0615 9.49959C34.8926 7.27827 35.9337 5.12984 36.9742 2.99268C37.4845 1.94366 38.2015 0.995414 38.8249 0.00214296L38.9449 0.00696707ZM38.3162 4.70584L38.1585 4.65492C37.667 5.71091 37.1346 6.75081 36.6959 7.82609C35.6242 10.4071 34.7629 13.0696 34.1201 15.7883C33.8015 17.152 33.5452 18.5312 33.2879 19.9078C33.0538 21.1632 32.8067 22.4207 32.6587 23.6863C32.4713 25.2885 32.3018 26.8907 32.2636 28.4934C32.1936 31.5349 32.1731 34.5795 32.2286 37.621C32.2576 39.2044 32.4816 40.7847 32.6441 42.3654C32.7453 43.3442 32.8487 44.3273 33.0349 45.2933C33.3041 46.6869 33.6158 48.0726 33.9694 49.4507C34.3715 51.0063 34.8469 52.5431 35.2657 54.0274H45.8287C45.1704 52.951 44.512 51.9267 43.9107 50.875C43.4866 50.1353 43.0333 49.3875 42.7669 48.5893C42.5106 47.8389 41.9799 47.2653 41.7694 46.4624C41.2984 44.6795 40.4952 42.9851 39.9731 41.2183C39.4202 39.3363 39.0133 37.4103 38.5848 35.4951C38.2925 34.184 38.0304 32.8541 37.8242 31.5225C37.6003 30.079 37.4334 28.6253 37.2816 27.1716C37.1104 25.5356 36.9042 23.8985 36.8531 22.2567C36.7314 18.3238 36.6717 14.3748 37.2918 10.4575C37.5421 8.87726 37.8376 7.30239 38.1154 5.72484C38.1682 5.38768 38.2457 5.04676 38.3162 4.70584ZM30.1416 34.1304L27.0856 34.5672C24.5858 34.9167 22.1123 34.6428 19.7115 34.0033C17.583 33.4287 15.6139 32.3786 13.9538 30.9329C11.2548 28.6183 9.56559 25.6685 8.41686 22.3778C7.80104 20.618 7.31657 18.8105 7.23368 16.9446C7.14862 15.0304 7.19438 13.1092 7.22183 11.1924C7.23206 10.5486 7.36825 9.90591 7.44254 9.26374L7.29611 9.24176C7.18038 9.54355 7.06788 9.84641 6.94784 10.1466C6.11455 12.1958 5.61393 14.3646 5.46428 16.5704C5.35932 18.5098 5.4083 20.454 5.6107 22.3853C5.74689 23.8058 6.11401 25.2215 6.52797 26.5953C7.29881 29.171 8.50783 31.5954 10.1034 33.7637C11.7624 36.0585 13.9016 37.9678 16.3729 39.3604C18.5164 40.5483 20.878 41.2955 23.317 41.5587C25.6236 41.8241 27.8516 41.5148 30.0651 40.9321C30.485 40.8211 30.5491 40.603 30.5243 40.224C30.4366 38.9129 30.3779 37.5872 30.3047 36.2707C30.2535 35.5498 30.1906 34.8213 30.141 34.1352L30.1416 34.1304ZM14.7236 54.0708C14.9475 52.7452 15.186 51.4721 15.3685 50.1915C15.544 48.9619 15.6608 47.7242 15.8072 46.4918C15.9929 44.9523 16.1845 43.4123 16.3923 41.8755C16.4332 41.5635 16.3073 41.459 16.0532 41.2928C14.7613 40.4668 13.4667 39.6397 12.2399 38.7231C11.4265 38.1158 10.7256 37.3594 9.93432 36.6326C9.86165 36.7794 9.79867 36.9306 9.74538 37.0855C9.38849 38.3618 9.05366 39.6435 8.6817 40.9139C8.27528 42.3092 7.8145 43.6814 7.41616 45.0858C6.6367 47.8228 5.75711 50.5223 4.49049 53.0802C4.34408 53.3874 4.20951 53.7079 4.05179 54.0676L14.7236 54.0708ZM11.8447 4.44801L11.7366 4.49036C11.7279 4.57773 11.7279 4.66564 11.7366 4.75248C12.1021 6.47422 12.5908 8.17881 12.8105 9.9177C13.1141 12.2398 13.2906 14.5769 13.3401 16.9183C13.3945 20.0471 13.0888 23.1631 12.5736 26.2555C12.5532 26.4501 12.6027 26.6457 12.7125 26.8076C13.9926 28.6081 15.5563 30.094 17.54 31.1237C17.9464 31.3349 18.0271 31.2197 18.0169 30.8412C17.9625 28.7539 17.9189 26.6666 17.8484 24.5777C17.8323 23.9007 17.7709 23.2253 17.6654 22.5558C17.3726 20.8314 17.1034 19.0989 16.697 17.3991C16.248 15.5155 15.7167 13.6469 15.1085 11.8072C14.6197 10.3299 13.9953 8.89387 13.366 7.46802C12.9154 6.4442 12.3567 5.4579 11.8447 4.45283V4.44801V4.44801ZM42.5989 8.89656C42.5989 9.1426 42.5903 9.23425 42.5989 9.32324C42.7453 10.6606 42.9542 11.9948 43.0274 13.3365C43.0764 14.3432 43.0382 15.352 42.9117 16.3517C42.7346 17.8081 42.5693 19.2956 42.1801 20.7129C41.7823 22.1902 41.1681 23.6144 40.5711 25.0306C40.2654 25.7645 39.8665 26.457 39.3847 27.0906C39.2001 27.2911 39.1247 27.5688 39.1829 27.8352C39.3395 28.919 39.452 30.0099 39.6011 31.0953C39.7034 31.8351 39.838 32.5726 39.9666 33.3097C39.9769 33.3638 40.0619 33.4046 40.113 33.4555C44.8016 27.4203 46.409 17.0507 42.5984 8.90191V8.89656H42.5989ZM38.9272 23.9923C40.2519 21.3031 41.0066 18.3715 41.1433 15.3794C41.3221 12.3218 40.8984 9.25945 39.8972 6.3638C38.7926 10.0581 38.1988 20.3886 38.9272 23.9966V23.9923ZM10.9872 23.8289C11.8238 18.8223 11.2316 7.40799 10.1098 6.53533C8.25644 12.3695 8.52559 18.082 10.9829 23.8331L10.9872 23.8289Z" fill="#FEFEFE"/>
</svg>
