<svg id="visual" viewBox="0 0  600" width="1000" height="600" xmlns="http://www.w3.org/2000/svg" xmlns:xlink="http://www.w3.org/1999/xlink" version="1.1"><rect x="0" y="0" width="900" height="600" fill="#002233"></rect><path d="M0 502L21.5 504.3C43 506.7 86 511.3 128.8 508C171.7 504.7 214.3 493.3 257.2 493.2C300 493 343 504 385.8 506.8C428.7 509.7 471.3 504.3 514.2 488.5C557 472.7 600 446.3 642.8 428.3C685.7 410.3 728.3 400.7 771.2 408C814 415.3 857 439.7 878.5 451.8L900 464L900 601L878.5 601C857 601 814 601 771.2 601C728.3 601 685.7 601 642.8 601C600 601 557 601 514.2 601C471.3 601 428.7 601 385.8 601C343 601 300 601 257.2 601C214.3 601 171.7 601 128.8 601C86 601 43 601 21.5 601L0 601Z" fill="#0066FF" stroke-linecap="round" stroke-linejoin="miter"></path></svg>